<svg width="512" height="512" viewBox="0 0 512 512" fill="none" xmlns="http://www.w3.org/2000/svg">
<rect x="512" y="512" width="512" height="512" rx="116" transform="rotate(-180 512 512)" fill="url(#paint0_linear_54_215)"/>
<path d="M175.774 315.692H221.814V505.226C221.814 508.968 224.846 512 228.588 512H306.651C310.393 512 313.425 508.968 313.425 505.226V316.585H366.351C369.793 316.585 372.688 314.003 373.081 310.584L381.12 240.807C381.34 238.888 380.732 236.965 379.448 235.525C378.162 234.083 376.322 233.258 374.391 233.258H313.428V189.519C313.428 176.333 320.527 169.647 334.531 169.647C336.527 169.647 374.391 169.647 374.391 169.647C378.133 169.647 381.166 166.614 381.166 162.873V98.8243C381.166 95.0823 378.133 92.0501 374.391 92.0501H319.458C319.071 92.0312 318.21 92 316.942 92C307.411 92 274.28 93.871 248.109 117.947C219.113 144.626 223.143 176.57 224.107 182.109V233.257H175.774C172.032 233.257 169 236.289 169 240.031V308.916C169 312.659 172.032 315.692 175.774 315.692Z" fill="white"/>
<rect x="305" y="505" width="8.42" height="7" fill="white"/>
<rect x="221.8" y="505" width="8" height="7" fill="white"/>
<defs>
<linearGradient id="paint0_linear_54_215" x1="768" y1="512" x2="768" y2="1024" gradientUnits="userSpaceOnUse">
<stop stop-color="#2B64D6"/>
<stop offset="1" stop-color="#51AEF7"/>
</linearGradient>
</defs>
</svg>
