<svg width="512" height="512" viewBox="0 0 512 512" fill="none" xmlns="http://www.w3.org/2000/svg">
<rect x="512" y="512" width="512" height="512" rx="116" transform="rotate(-180 512 512)" fill="white"/>
<rect x="511.5" y="511.5" width="511" height="511" rx="115.5" transform="rotate(-180 511.5 511.5)" stroke="black" stroke-opacity="0.16"/>
<g filter="url(#filter0_d_101_9)">
<path fill-rule="evenodd" clip-rule="evenodd" d="M256.382 96C165.424 96 92 169.438 92 260.413C92 332.755 139.123 394.136 204.876 416.057C213.643 417.154 215.834 412.769 215.834 408.385V379.887C169.807 389.751 159.945 357.965 159.945 357.965C152.273 339.331 141.315 333.851 141.315 333.851C125.972 323.986 142.41 323.986 142.41 323.986C158.849 325.082 167.616 340.427 167.616 340.427C181.862 365.637 205.971 357.965 215.834 353.58C216.93 342.62 221.314 336.043 226.793 331.659C190.629 327.274 152.273 313.025 152.273 250.548C152.273 233.011 158.849 217.666 168.712 206.705C166.52 202.32 161.04 185.879 169.807 162.861C169.807 162.861 184.054 158.477 214.738 179.303C227.889 176.014 242.135 173.822 256.382 173.822C270.628 173.822 284.875 176.014 298.025 179.303C329.806 158.477 342.956 162.861 342.956 162.861C351.723 185.879 346.244 202.32 344.052 206.705C355.011 217.666 360.49 233.011 360.49 250.548C360.49 314.121 322.135 327.274 285.971 331.659C291.45 337.139 296.929 347.004 296.929 362.349V407.289C296.929 411.673 300.217 417.153 307.888 414.961C373.641 393.04 419.668 331.659 419.668 259.317C420.764 169.438 347.34 96 256.382 96Z" fill="#181616"/>
</g>
<defs>
<filter id="filter0_d_101_9" x="76" y="86" width="359.68" height="352.228" filterUnits="userSpaceOnUse" color-interpolation-filters="sRGB">
<feFlood flood-opacity="0" result="BackgroundImageFix"/>
<feColorMatrix in="SourceAlpha" type="matrix" values="0 0 0 0 0 0 0 0 0 0 0 0 0 0 0 0 0 0 127 0" result="hardAlpha"/>
<feOffset dy="6"/>
<feGaussianBlur stdDeviation="8"/>
<feComposite in2="hardAlpha" operator="out"/>
<feColorMatrix type="matrix" values="0 0 0 0 0 0 0 0 0 0 0 0 0 0 0 0 0 0 0.16 0"/>
<feBlend mode="normal" in2="BackgroundImageFix" result="effect1_dropShadow_101_9"/>
<feBlend mode="normal" in="SourceGraphic" in2="effect1_dropShadow_101_9" result="shape"/>
</filter>
</defs>
</svg>
