<svg width="512" height="512" viewBox="0 0 512 512" fill="none" xmlns="http://www.w3.org/2000/svg">
<rect x="512" y="512" width="512" height="512" rx="116" transform="rotate(-180 512 512)" fill="url(#paint0_linear_54_217)"/>
<g filter="url(#filter0_d_54_217)">
<path d="M394.447 133H117.233C103.337 133 92 144.337 92 158.233V353.458C92 367.353 103.337 378.69 117.233 378.69H394.447C408.343 378.69 419.68 367.353 419.68 353.458V158.233C419.68 144.337 408.343 133 394.447 133ZM390.783 151.665L257.568 265.593L124.353 151.665H390.783ZM401.015 353.458C401.015 357.053 398.042 360.025 394.447 360.025H117.233C113.638 360.025 110.665 357.053 110.665 353.458V164.524L251.485 284.949C251.554 285.018 251.692 285.087 251.761 285.157C251.83 285.226 251.969 285.295 252.038 285.364C252.245 285.502 252.383 285.641 252.591 285.71C252.66 285.779 252.729 285.779 252.798 285.848C253.075 285.986 253.351 286.124 253.628 286.263C253.697 286.263 253.766 286.332 253.835 286.332C254.043 286.401 254.25 286.539 254.527 286.608C254.596 286.608 254.734 286.677 254.803 286.677C255.01 286.747 255.218 286.816 255.425 286.816C255.494 286.816 255.633 286.885 255.702 286.885C255.909 286.954 256.186 286.954 256.393 287.023C256.462 287.023 256.531 287.023 256.6 287.023C256.877 287.023 257.223 287.092 257.499 287.092C257.776 287.092 258.121 287.092 258.398 287.023C258.467 287.023 258.536 287.023 258.605 287.023C258.813 287.023 259.089 286.954 259.297 286.885C259.366 286.885 259.504 286.816 259.573 286.816C259.78 286.747 259.988 286.677 260.195 286.677C260.264 286.677 260.403 286.608 260.472 286.608C260.679 286.539 260.887 286.47 261.163 286.332C261.232 286.332 261.301 286.263 261.37 286.263C261.647 286.124 261.924 285.986 262.2 285.848C262.269 285.779 262.338 285.779 262.407 285.71C262.615 285.571 262.753 285.502 262.96 285.364C263.03 285.295 263.168 285.226 263.237 285.157C263.306 285.087 263.444 285.018 263.514 284.949L401.015 167.496V353.458Z" fill="white"/>
</g>
<defs>
<filter id="filter0_d_54_217" x="76" y="123" width="359.68" height="277.69" filterUnits="userSpaceOnUse" color-interpolation-filters="sRGB">
<feFlood flood-opacity="0" result="BackgroundImageFix"/>
<feColorMatrix in="SourceAlpha" type="matrix" values="0 0 0 0 0 0 0 0 0 0 0 0 0 0 0 0 0 0 127 0" result="hardAlpha"/>
<feOffset dy="6"/>
<feGaussianBlur stdDeviation="8"/>
<feComposite in2="hardAlpha" operator="out"/>
<feColorMatrix type="matrix" values="0 0 0 0 0 0 0 0 0 0 0 0 0 0 0 0 0 0 0.16 0"/>
<feBlend mode="normal" in2="BackgroundImageFix" result="effect1_dropShadow_54_217"/>
<feBlend mode="normal" in="SourceGraphic" in2="effect1_dropShadow_54_217" result="shape"/>
</filter>
<linearGradient id="paint0_linear_54_217" x1="768" y1="512" x2="768" y2="1024" gradientUnits="userSpaceOnUse">
<stop stop-color="#77E5FC"/>
<stop offset="1" stop-color="#2D51E5"/>
</linearGradient>
</defs>
</svg>
