<svg width="512" height="512" viewBox="0 0 512 512" fill="none" xmlns="http://www.w3.org/2000/svg">
<rect x="512" y="512" width="512" height="512" rx="116" transform="rotate(-180 512 512)" fill="white"/>
<rect x="511.5" y="511.5" width="511" height="511" rx="115.5" transform="rotate(-180 511.5 511.5)" stroke="black" stroke-opacity="0.16"/>
<g filter="url(#filter0_d_54_213)">
<path d="M255.84 92C212.387 92 170.714 109.262 139.988 139.988C109.262 170.714 92 212.387 92 255.84C92 299.293 109.262 340.966 139.988 371.692C170.714 402.418 212.387 419.68 255.84 419.68C299.293 419.68 340.966 402.418 371.692 371.692C402.418 340.966 419.68 299.293 419.68 255.84C419.68 212.387 402.418 170.714 371.692 139.988C340.966 109.262 299.293 92 255.84 92V92ZM324.243 156.771C333.637 156.771 341.31 164.431 341.31 173.824C341.262 178.253 339.495 182.489 336.382 185.639C333.269 188.788 329.054 190.605 324.627 190.704C320.199 190.803 315.907 189.178 312.656 186.171C309.405 183.164 307.45 179.011 307.204 174.589L271.746 167.121L260.823 218.28C285.727 219.235 308.337 226.909 324.639 238.596C328.844 234.377 334.606 231.892 341.119 231.892C354.335 231.892 365.067 242.624 365.067 255.84C365.067 265.616 359.127 274.04 351.277 277.876C351.666 280.223 351.858 282.598 351.85 284.976C351.85 321.758 309.115 351.468 256.222 351.468C203.329 351.468 160.594 321.758 160.594 284.976C160.594 282.478 160.799 279.979 161.181 277.685C156.955 275.81 153.364 272.747 150.846 268.869C148.327 264.99 146.99 260.464 146.996 255.84C146.996 242.624 157.727 231.892 170.944 231.892C177.265 231.892 183.204 234.568 187.423 238.582C203.903 226.526 226.717 219.058 252.195 218.28L264.278 161.181C264.566 160.082 265.246 159.126 266.189 158.492C267.17 157.921 268.322 157.718 269.439 157.918L309.115 166.342C310.456 163.466 312.594 161.036 315.276 159.339C317.958 157.642 321.07 156.751 324.243 156.771ZM218.293 255.84C208.886 255.84 201.227 263.513 201.227 272.907C201.227 282.286 208.886 289.946 218.293 289.946C227.673 289.946 235.333 282.286 235.333 272.893C235.333 263.5 227.673 255.84 218.28 255.84H218.293ZM293.387 255.84C284.007 255.84 276.347 263.5 276.347 272.907C276.347 282.286 284.007 289.946 293.4 289.946C302.794 289.946 310.453 282.286 310.453 272.893C310.453 263.513 302.78 255.84 293.387 255.84ZM218.758 310.317C217.578 310.311 216.444 310.773 215.604 311.6C214.774 312.443 214.309 313.578 214.309 314.761C214.309 315.944 214.774 317.079 215.604 317.922C227.1 329.418 249.518 330.387 256.031 330.387C262.544 330.387 284.771 329.623 296.459 317.922C297.257 317.082 297.734 315.989 297.806 314.833C297.879 313.677 297.542 312.532 296.855 311.6C296.011 310.766 294.873 310.299 293.687 310.299C292.501 310.299 291.363 310.766 290.519 311.6C283.051 318.877 267.527 321.567 256.222 321.567C244.917 321.567 229.202 318.891 221.925 311.6C221.509 311.186 221.015 310.858 220.471 310.635C219.927 310.412 219.345 310.3 218.758 310.303V310.317Z" fill="url(#paint0_linear_54_213)"/>
</g>
<defs>
<filter id="filter0_d_54_213" x="76" y="82" width="359.68" height="359.68" filterUnits="userSpaceOnUse" color-interpolation-filters="sRGB">
<feFlood flood-opacity="0" result="BackgroundImageFix"/>
<feColorMatrix in="SourceAlpha" type="matrix" values="0 0 0 0 0 0 0 0 0 0 0 0 0 0 0 0 0 0 127 0" result="hardAlpha"/>
<feOffset dy="6"/>
<feGaussianBlur stdDeviation="8"/>
<feComposite in2="hardAlpha" operator="out"/>
<feColorMatrix type="matrix" values="0 0 0 0 0 0 0 0 0 0 0 0 0 0 0 0 0 0 0.16 0"/>
<feBlend mode="normal" in2="BackgroundImageFix" result="effect1_dropShadow_54_213"/>
<feBlend mode="normal" in="SourceGraphic" in2="effect1_dropShadow_54_213" result="shape"/>
</filter>
<linearGradient id="paint0_linear_54_213" x1="255.84" y1="92" x2="255.84" y2="419.68" gradientUnits="userSpaceOnUse">
<stop stop-color="#EF8537"/>
<stop offset="1" stop-color="#DA3231"/>
</linearGradient>
</defs>
</svg>
