<svg width="512" height="512" viewBox="0 0 512 512" fill="none" xmlns="http://www.w3.org/2000/svg">
<rect x="512" y="512" width="512" height="512" rx="116" transform="rotate(-180 512 512)" fill="#FFFD54"/>
<rect x="511.5" y="511.5" width="511" height="511" rx="115.5" transform="rotate(-180 511.5 511.5)" stroke="black" stroke-opacity="0.16"/>
<path d="M169.416 277.438C168.856 278.612 163.817 290.359 153.737 302.693C148.138 309.741 141.418 315.614 134.698 320.313C126.859 325.599 117.9 329.123 108.38 330.885C103.341 332.059 100.541 337.345 102.781 342.044C104.46 345.568 107.82 348.505 113.42 351.441C120.139 354.965 130.219 357.315 143.658 359.664C144.778 361.426 145.898 364.95 145.898 367.299C146.458 369.649 147.018 371.998 147.578 374.935C148.138 377.871 150.377 381.395 155.977 381.395C158.217 381.395 160.457 380.808 163.257 380.221C167.176 379.633 172.776 378.459 179.495 378.459C183.415 378.459 187.335 379.046 191.255 379.633C199.094 380.808 205.254 386.094 213.093 391.38C224.293 399.603 236.612 409 256.21 409C256.77 409 257.33 409 257.89 409C258.45 409 259.57 409 260.13 409C279.169 409 292.048 399.603 303.247 391.38C311.087 385.507 317.246 380.808 325.086 379.633C329.006 379.046 332.925 378.459 336.845 378.459C343.565 378.459 348.604 379.046 353.084 380.221C355.884 380.808 358.684 381.395 360.363 381.395C364.283 381.395 367.083 379.046 368.203 374.935C368.763 372.585 369.323 369.649 369.883 367.299C370.443 364.95 371.003 361.426 371.563 360.251C385.002 357.902 395.081 355.553 401.801 352.029C407.4 349.092 410.76 346.155 412.44 342.631C413 341.457 413 340.282 413 339.107C413 334.996 409.64 332.06 406.28 331.472C365.403 323.837 346.924 279.787 345.804 278.025C345.804 278.025 345.804 278.025 345.804 277.438C343.565 272.739 343.005 269.215 344.125 266.278C346.364 260.405 355.324 258.056 360.923 255.706C362.603 255.119 364.283 254.532 365.403 253.944C371.003 251.595 374.923 249.246 377.722 246.309C381.082 242.785 381.642 239.848 381.642 237.499C381.642 232.213 377.722 227.514 371.563 225.165C369.323 223.99 367.083 223.99 364.843 223.99C363.163 223.99 360.923 223.99 358.684 225.165C353.644 227.514 349.724 228.689 345.804 229.276C343.565 229.276 342.445 228.689 341.325 228.102C341.325 226.34 341.325 223.99 341.885 221.641V220.466C343.005 198.148 344.685 171.131 337.965 154.685C333.485 143.526 326.766 134.129 318.926 125.906C312.207 119.445 304.927 114.159 295.968 110.048C281.409 104.175 267.97 103 260.69 103H260.13C258.45 103 255.09 103 254.531 103C247.811 103 233.812 104.175 219.253 110.635C210.853 114.747 203.014 120.033 196.854 126.493C189.015 134.129 182.855 144.113 177.816 154.685C171.096 171.131 172.776 198.148 173.896 220.466C173.896 222.816 174.456 225.165 174.456 227.514C173.336 228.102 171.656 228.689 169.416 228.689C165.496 228.689 161.017 227.514 155.417 224.578C153.737 223.99 152.057 223.403 150.377 223.403C147.018 223.403 144.218 224.578 140.858 226.34C137.498 228.689 134.698 231.626 134.139 235.15C133.579 237.499 133.579 242.198 138.618 246.309C141.418 248.658 145.338 251.008 150.377 253.357C151.497 253.944 153.177 254.532 154.857 255.119C160.457 256.881 169.416 259.818 171.656 265.691C172.216 268.628 172.216 272.739 169.416 277.438C169.976 276.85 169.976 277.438 169.416 277.438Z" fill="white"/>
<g filter="url(#filter0_d_54_220)">
<path fill-rule="evenodd" clip-rule="evenodd" d="M418.551 344.892C413.477 357.463 401.513 363.347 394.719 366.124C389.923 368.084 384.48 369.74 378.566 371.146C378.452 371.601 378.334 372.063 378.21 372.53C376.826 378.352 373.542 383.788 368.555 387.753C363.587 391.704 357.297 393.873 350.743 393.653H350.504L350.019 393.632C346.596 393.49 343.194 393.029 339.86 392.255C336.364 391.487 332.813 391.095 329.257 391.078C327.227 391.081 325.189 391.239 323.123 391.559C319.136 392.784 315.374 394.879 312.054 397.828C297.576 410.945 279.181 418.737 259.725 419.653L259.174 419.68H258.623C258.021 419.68 257.339 419.672 256.627 419.65C256.095 419.671 255.562 419.681 255.028 419.68L254.507 419.678L253.986 419.655C234.526 418.747 216.128 410.956 201.654 397.836C198.32 394.884 194.542 392.779 190.589 391.562C188.571 391.253 186.539 391.092 184.505 391.08C181.002 391.131 177.528 391.552 174.091 392.344C170.968 393.102 167.786 393.592 164.577 393.806C157.708 394.4 150.999 392.362 145.683 388.321C140.417 384.319 136.944 378.706 135.496 372.673C135.364 372.173 135.236 371.672 135.111 371.169C129.201 369.765 123.762 368.108 118.964 366.143C112.159 363.356 100.254 357.472 95.1734 344.953C93.9417 341.935 93.2299 338.751 93.0444 335.539L93.0339 335.358C92.7228 329.139 94.5539 322.836 98.4628 317.654C102.344 312.507 108.112 308.721 114.883 307.453C126.285 305.232 136.897 298.652 144.583 288.466L144.829 288.14L145.086 287.823C148.476 283.643 151.468 279.096 154.021 274.231C152.729 273.798 150.861 273.155 149.117 272.413C145.689 270.969 139.713 268.167 134.392 263.686C129.633 259.677 119.64 249.219 122.466 233.419L122.818 231.45L123.499 229.569C125.953 222.79 130.432 216.737 136.563 212.442C142.527 208.264 149.705 206.009 157.132 206.163C157.253 206.163 157.375 206.164 157.496 206.166C157.067 189.526 158.89 172.857 162.946 156.7L163.357 155.063L163.999 153.503C171.462 135.342 183.878 119.693 199.911 108.675C215.893 97.692 234.709 91.8473 254.014 92.0464L259.383 92.0075C278.763 91.7605 297.662 97.5985 313.714 108.61C329.767 119.624 342.205 135.274 349.691 153.441L350.342 155.016L350.756 156.669C354.792 172.778 356.616 189.378 356.201 205.961C356.243 205.961 356.286 205.961 356.326 205.961C360.722 205.981 365.019 206.798 369.053 208.334C374.792 210.2 379.799 213.606 383.631 218.032C387.897 222.961 390.551 228.959 391.455 235.212L391.664 236.663L391.692 238.13C392.015 255.754 378.434 266.58 364.543 272.43L364.359 272.506C362.753 273.166 361.032 273.773 359.58 274.262C363.471 281.853 368.625 288.536 374.732 293.991C382.157 300.623 390.79 305.267 399.939 307.688C406.25 309.16 411.61 312.833 415.271 317.721C419.149 322.899 420.96 329.181 420.645 335.38L420.64 335.475C420.462 338.685 419.771 341.873 418.551 344.892ZM396.84 336.123C397.086 335.51 397.233 334.856 397.269 334.19C397.314 333.31 397.054 332.442 396.537 331.752C396.021 331.063 395.286 330.599 394.47 330.451C392.669 329.988 390.885 329.462 389.122 328.878L389.06 328.858C384.964 327.497 380.975 325.818 377.126 323.837C376.727 323.631 376.33 323.423 375.934 323.211C369.947 320.006 364.309 316.064 359.14 311.447C348.897 302.297 340.777 290.749 335.417 277.702L335.341 277.518C334.2 275.527 333.482 273.293 333.237 270.974C332.992 268.657 333.225 266.309 333.921 264.096C334.976 261.432 336.995 259.348 339.418 257.678C339.675 257.502 339.938 257.329 340.203 257.16C343.807 254.88 348.126 253.421 351.489 252.289C351.698 252.218 351.906 252.15 352.112 252.079C352.162 252.062 352.211 252.047 352.261 252.029C352.324 252.008 352.386 251.987 352.449 251.966C353.566 251.585 354.605 251.209 355.459 250.858C355.597 250.8 355.733 250.742 355.869 250.684C355.961 250.644 356.053 250.605 356.144 250.564L356.169 250.553C357.713 249.878 359.071 249.201 360.261 248.526C360.619 248.324 360.959 248.122 361.287 247.921C367.015 244.398 368.335 241.009 368.29 238.56C368.009 236.613 367.188 234.8 365.935 233.352C364.68 231.902 363.05 230.885 361.251 230.429L361.174 230.389C359.583 229.714 357.894 229.367 356.169 229.367C355.605 229.359 355.044 229.399 354.49 229.485C353.564 229.63 352.658 229.906 351.796 230.306C350.487 231.011 349.142 231.628 347.769 232.155C347.716 232.175 347.661 232.195 347.608 232.216C347.335 232.319 347.061 232.419 346.784 232.514C346.511 232.609 346.237 232.701 345.961 232.79C345.677 232.881 345.389 232.968 345.102 233.052L345.02 233.076C342.849 233.703 340.623 234.11 338.371 234.29C337.071 234.319 335.792 234.118 334.576 233.704C333.262 233.257 332.025 232.559 330.929 231.634L331.37 223.687L331.427 222.727C334.131 202.568 332.983 182.034 328.052 162.359C322.234 148.241 312.642 136.26 300.472 127.911C288.303 119.562 274.094 115.215 259.622 115.412L253.964 115.453C239.505 115.264 225.316 119.616 213.167 127.965C201.017 136.315 191.446 148.291 185.647 162.4C180.719 182.032 179.568 202.564 182.253 222.686C182.438 225.668 182.611 228.65 182.771 231.634C181.669 232.554 180.434 233.253 179.127 233.709C177.668 234.219 176.119 234.428 174.562 234.311C172.542 234.219 170.536 233.937 168.568 233.47C168.534 233.463 168.5 233.455 168.466 233.447C168.283 233.403 168.1 233.356 167.918 233.31C167.281 233.146 166.648 232.962 166.02 232.757C165.968 232.74 165.915 232.723 165.862 232.706C165.719 232.659 165.577 232.611 165.435 232.562C163.683 231.958 161.975 231.205 160.331 230.306C159.974 230.137 159.607 229.997 159.233 229.886C158.47 229.658 157.676 229.552 156.879 229.571C154.44 229.47 152.032 230.183 149.993 231.612C147.953 233.04 146.384 235.112 145.506 237.538C144.815 241.403 147.651 244.635 151.166 247.077C151.475 247.292 151.79 247.5 152.107 247.703C153.404 248.53 154.757 249.254 156.032 249.867C156.497 250.09 156.952 250.297 157.389 250.491C157.681 250.62 157.966 250.742 158.241 250.858C159.099 251.227 160.147 251.597 161.273 251.975C161.581 252.079 161.894 252.184 162.211 252.289C165.368 253.354 169.39 254.713 172.859 256.773C173.083 256.907 173.305 257.043 173.523 257.182C173.805 257.36 174.082 257.544 174.354 257.733C176.745 259.393 178.735 261.46 179.779 264.096C180.473 266.313 180.704 268.665 180.455 270.987C180.207 273.31 179.485 275.546 178.34 277.539L178.283 277.702C174.389 286.712 169.345 295.068 163.266 302.566C156.56 311.45 148.164 318.592 138.72 323.579C138.154 323.879 137.584 324.169 137.011 324.453C131.389 327.23 125.419 329.257 119.23 330.451C118.411 330.596 117.67 331.056 117.15 331.746C116.63 332.436 116.367 333.307 116.411 334.19C116.45 334.859 116.599 335.516 116.852 336.131C117.529 337.811 118.946 339.412 121.077 340.923C121.143 340.97 121.209 341.016 121.276 341.062C124.395 343.22 128.98 345.187 134.951 346.932C136.735 347.453 138.643 347.954 140.673 348.433C144.297 349.291 148.309 350.081 152.698 350.798C154.654 351.126 155.479 354.537 156.63 360.114C157.08 362.45 157.611 364.767 158.221 367.061C158.438 368.12 159.018 369.058 159.848 369.688C160.677 370.319 161.697 370.598 162.709 370.472C164.718 370.356 166.714 370.055 168.674 369.573C173.852 368.368 179.107 367.735 184.401 367.672C188.205 367.683 192.003 368.023 195.755 368.694C203.669 370.834 211.029 374.842 217.293 380.421C227.874 390.045 241.173 395.625 255.076 396.274C255.543 396.276 256.01 396.254 256.476 396.213C257.052 396.254 257.818 396.274 258.623 396.274C272.525 395.619 285.821 390.04 296.406 380.421C302.679 374.824 310.024 370.84 317.944 368.694C321.703 368.02 325.482 367.672 329.299 367.672C334.59 367.693 339.866 368.281 345.045 369.429C347 369.891 348.989 370.164 350.99 370.247H351.316C352.269 370.333 353.219 370.044 353.987 369.434C354.753 368.824 355.284 367.936 355.477 366.937C356.111 364.587 356.61 362.341 357.07 360.053C358.202 354.497 359.046 351.104 361.001 350.778C365.777 349.992 370.107 349.123 373.976 348.177C375.642 347.77 377.223 347.347 378.716 346.912C384.196 345.315 388.51 343.532 391.598 341.589C391.929 341.38 392.248 341.169 392.55 340.957C393.198 340.505 393.781 340.041 394.3 339.572C395.506 338.476 396.355 337.337 396.837 336.157L396.84 336.123Z" fill="black"/>
</g>
<defs>
<filter id="filter0_d_54_220" x="77" y="82" width="359.68" height="359.68" filterUnits="userSpaceOnUse" color-interpolation-filters="sRGB">
<feFlood flood-opacity="0" result="BackgroundImageFix"/>
<feColorMatrix in="SourceAlpha" type="matrix" values="0 0 0 0 0 0 0 0 0 0 0 0 0 0 0 0 0 0 127 0" result="hardAlpha"/>
<feOffset dy="6"/>
<feGaussianBlur stdDeviation="8"/>
<feComposite in2="hardAlpha" operator="out"/>
<feColorMatrix type="matrix" values="0 0 0 0 0 0 0 0 0 0 0 0 0 0 0 0 0 0 0.16 0"/>
<feBlend mode="normal" in2="BackgroundImageFix" result="effect1_dropShadow_54_220"/>
<feBlend mode="normal" in="SourceGraphic" in2="effect1_dropShadow_54_220" result="shape"/>
</filter>
</defs>
</svg>
