<svg width="512" height="512" viewBox="0 0 512 512" fill="none" xmlns="http://www.w3.org/2000/svg">
<rect x="512" y="512" width="512" height="512" rx="116" transform="rotate(-180 512 512)" fill="#25D366"/>
<g filter="url(#filter0_d_54_216)">
<path d="M334.466 280.289C333.828 279.983 309.939 268.219 305.694 266.692C303.961 266.069 302.105 265.462 300.13 265.462C296.904 265.462 294.195 267.069 292.084 270.227C289.698 273.774 282.474 282.218 280.242 284.741C279.95 285.074 279.552 285.472 279.314 285.472C279.1 285.472 275.403 283.949 274.284 283.463C248.658 272.331 229.207 245.563 226.539 241.049C226.158 240.4 226.142 240.105 226.139 240.105C226.233 239.761 227.095 238.897 227.539 238.452C228.841 237.164 230.25 235.467 231.614 233.826C232.26 233.048 232.907 232.269 233.542 231.535C235.521 229.233 236.402 227.446 237.423 225.375L237.958 224.3C240.452 219.345 238.322 215.164 237.634 213.814C237.069 212.684 226.982 188.34 225.909 185.782C223.331 179.611 219.923 176.737 215.188 176.737C214.748 176.737 215.188 176.737 213.345 176.815C211.101 176.91 198.882 178.518 193.48 181.924C187.751 185.536 178.059 197.049 178.059 217.297C178.059 235.521 189.623 252.727 194.588 259.271C194.712 259.436 194.938 259.771 195.267 260.252C214.282 288.022 237.987 308.602 262.017 318.201C285.152 327.442 296.106 328.51 302.335 328.51C302.336 328.51 302.336 328.51 302.336 328.51C304.953 328.51 307.048 328.305 308.896 328.123L310.068 328.012C318.06 327.303 335.623 318.202 339.618 307.101C342.765 298.356 343.595 288.803 341.501 285.335C340.067 282.978 337.595 281.792 334.466 280.289Z" fill="white"/>
<path d="M258.749 92C170.003 92 97.8022 163.658 97.8022 251.737C97.8022 280.225 105.426 308.11 119.869 332.516L92.2253 414.058C91.7104 415.579 92.0934 417.26 93.2179 418.404C94.0297 419.233 95.1308 419.68 96.2553 419.68C96.6862 419.68 97.1203 419.615 97.5437 419.48L182.57 392.461C205.838 404.893 232.135 411.455 258.75 411.455C347.487 411.456 419.68 339.806 419.68 251.737C419.68 163.658 347.487 92 258.749 92ZM258.749 378.182C233.705 378.182 209.45 370.95 188.599 357.269C187.898 356.808 187.084 356.572 186.265 356.572C185.832 356.572 185.398 356.638 184.976 356.772L142.383 370.311L156.133 329.746C156.577 328.433 156.355 326.985 155.536 325.866C139.658 304.171 131.265 278.538 131.265 251.737C131.265 182.006 188.454 125.274 258.748 125.274C329.033 125.274 386.215 182.006 386.215 251.737C386.216 321.459 329.035 378.182 258.749 378.182Z" fill="white"/>
</g>
<defs>
<filter id="filter0_d_54_216" x="76" y="82" width="359.68" height="359.68" filterUnits="userSpaceOnUse" color-interpolation-filters="sRGB">
<feFlood flood-opacity="0" result="BackgroundImageFix"/>
<feColorMatrix in="SourceAlpha" type="matrix" values="0 0 0 0 0 0 0 0 0 0 0 0 0 0 0 0 0 0 127 0" result="hardAlpha"/>
<feOffset dy="6"/>
<feGaussianBlur stdDeviation="8"/>
<feComposite in2="hardAlpha" operator="out"/>
<feColorMatrix type="matrix" values="0 0 0 0 0 0 0 0 0 0 0 0 0 0 0 0 0 0 0.16 0"/>
<feBlend mode="normal" in2="BackgroundImageFix" result="effect1_dropShadow_54_216"/>
<feBlend mode="normal" in="SourceGraphic" in2="effect1_dropShadow_54_216" result="shape"/>
</filter>
</defs>
</svg>
